<svg width="58" height="52" viewBox="0 0 58 52" fill="none" xmlns="http://www.w3.org/2000/svg">
<path d="M50.3333 22V7.33333C50.3333 4.38667 47.9467 2 45 2H10.3333C7.38667 2 5 4.38667 5 7.33333V34" stroke="#272E35" stroke-width="3" stroke-linecap="round" stroke-linejoin="round"/>
<path d="M36.9999 42H4.99992C3.52792 42 2.33325 40.8053 2.33325 39.3333V36.6667C2.33325 35.1947 3.52792 34 4.99992 34H36.9999" stroke="#272E35" stroke-width="3" stroke-linecap="round" stroke-linejoin="round"/>
<path d="M53 50H39.6667C38.1947 50 37 48.8053 37 47.3333V24.6667C37 23.1947 38.1947 22 39.6667 22H53C54.472 22 55.6667 23.1947 55.6667 24.6667V47.3333C55.6667 48.8053 54.472 50 53 50Z" stroke="#272E35" stroke-width="3" stroke-linecap="round" stroke-linejoin="round"/>
<path d="M37 42H55.6667" stroke="#272E35" stroke-width="3" stroke-linecap="round" stroke-linejoin="round"/>
</svg>
