<svg width="56" height="48" viewBox="0 0 56 48" fill="none" xmlns="http://www.w3.org/2000/svg">
<path d="M49.3334 25V46.3333" stroke="#272E35" stroke-width="3" stroke-linecap="round" stroke-linejoin="round"/>
<path d="M35.1987 32.1167V46.33" stroke="#272E35" stroke-width="3" stroke-linecap="round" stroke-linejoin="round"/>
<path d="M6.66663 38.3334V46.3334" stroke="#272E35" stroke-width="3" stroke-linecap="round" stroke-linejoin="round"/>
<path d="M20.7981 29.2628V46.3295" stroke="#272E35" stroke-width="3" stroke-linecap="round" stroke-linejoin="round"/>
<path d="M38.5037 15.6897C40.3262 17.5122 40.3262 20.4669 38.5037 22.2894C36.6813 24.1118 33.7265 24.1118 31.9041 22.2894C30.0816 20.4669 30.0816 17.5121 31.9041 15.6897C33.7265 13.8673 36.6813 13.8673 38.5037 15.6897Z" stroke="#272E35" stroke-width="3" stroke-linecap="round" stroke-linejoin="round"/>
<path d="M52.9139 3.68019C54.7363 5.50264 54.7363 8.45742 52.9139 10.2798C51.0914 12.1023 48.1366 12.1023 46.3142 10.2798C44.4918 8.4574 44.4918 5.50262 46.3142 3.68019C48.1367 1.85774 51.0914 1.85774 52.9139 3.68019Z" stroke="#272E35" stroke-width="3" stroke-linecap="round" stroke-linejoin="round"/>
<path d="M9.68573 18.0746C11.5082 19.897 11.5082 22.8518 9.68573 24.6742C7.86328 26.4967 4.9085 26.4967 3.08607 24.6742C1.26363 22.8518 1.26363 19.897 3.08607 18.0746C4.90852 16.2522 7.8633 16.2522 9.68573 18.0746" stroke="#272E35" stroke-width="3" stroke-linecap="round" stroke-linejoin="round"/>
<path d="M24.0969 6.06605C25.9193 7.8885 25.9193 10.8433 24.0969 12.6657C22.2744 14.4882 19.3196 14.4882 17.4972 12.6657C15.6748 10.8433 15.6748 7.88848 17.4972 6.06605C19.3197 4.24361 22.2744 4.24361 24.0969 6.06605Z" stroke="#272E35" stroke-width="3" stroke-linecap="round" stroke-linejoin="round"/>
<path d="M46.0517 9.95898L38.7717 16.0123" stroke="#272E35" stroke-width="3" stroke-linecap="round" stroke-linejoin="round"/>
<path d="M31.3066 16.4123L24.6666 11.959" stroke="#272E35" stroke-width="3" stroke-linecap="round" stroke-linejoin="round"/>
<path d="M9.97375 18.4098L17.2271 12.3564" stroke="#272E35" stroke-width="3" stroke-linecap="round" stroke-linejoin="round"/>
</svg>
